<?xml version="1.0" standalone="no"?>
<!DOCTYPE svg PUBLIC "-//W3C//DTD SVG 20010904//EN"
 "http://www.w3.org/TR/2001/REC-SVG-20010904/DTD/svg10.dtd">
<svg version="1.0" xmlns="http://www.w3.org/2000/svg"
 width="148.000000pt" height="59.000000pt" viewBox="0 0 148.000000 59.000000"
 preserveAspectRatio="xMidYMid meet">

<g transform="translate(0.000000,59.000000) scale(0.100000,-0.100000)" stroke="none">

  <!-- MAIN LOGO + BRAND (ORANGE) -->
  <path fill="#F36F21" d="M237 498 c-75 -16 -137 -91 -137 -166 0 -45 25 -102 46 -102 15 0 15 2 2 23 -23 35 -28 70 -17 113 36 132 206 155 276 37 32 -56 28 -116 -11 -168 -28 -37 -27 -42 5 -25 51 28 67 150 27 210 -46 67 -114 94 -191 78z"/>
  <path fill="#F36F21" d="M204 441 c-32 -20 -64 -74 -64 -110 0 -12 7 -37 14 -56 13 -29 20 -35 46 -35 17 0 55 -9 85 -19 l55 -19 30 29 c55 56 53 147 -6 198 -28 25 -43 31 -82 31 -28 0 -59 -8 -78 -19z m70 -7 c9 -3 13 -10 10 -15 -3 -5 -1 -9 5 -9 5 0 12 6 14 13 4 9 6 9 6 0 1 -6 -3 -14 -8 -17 -14 -9 -63 12 -56 24 7 12 8 12 29 4z m-15 -71 l19 -38 18 38 c10 20 25 37 34 37 13 0 17 -12 18 -65 1 -51 -2 -65 -13 -65 -11 0 -15 11 -15 38 l-1 37 -17 -27 c-9 -16 -20 -28 -24 -28 -4 0 -14 12 -22 28 l-15 27 -1 -37 c0 -27 -4 -38 -15 -38 -12 0 -15 14 -15 65 0 77 18 87 49 28z"/>

  <path fill="#F36F21" d="M500 380 c0 -56 3 -70 15 -70 11 0 15 12 15 43 l1 42 15 -27 c8 -16 21 -28 29 -28 8 0 21 12 29 28 l15 27 1 -42 c0 -31 4 -43 15 -43 12 0 15 14 15 70 0 60 -2 70 -17 70 -12 0 -25 -16 -36 -43 -17 -40 -19 -41 -33 -22 -8 11 -17 30 -21 43 -3 13 -13 22 -24 22 -17 0 -19 -8 -19 -70z"/>
  <path fill="#F36F21" d="M910 380 l0 -71 46 3 c51 3 72 23 59 54 -4 11 -8 33 -9 49 -1 28 -3 30 -48 33 l-48 3 0 -71z m64 44 c25 -9 19 -24 -9 -24 -16 0 -25 6 -25 15 0 16 9 19 34 9z m16 -69 c0 -9 -9 -15 -25 -15 -16 0 -25 6 -25 15 0 9 9 15 25 15 16 0 25 -6 25 -15z"/>
  <path fill="#F36F21" d="M1285 380 c0 -45 4 -70 11 -70 7 0 14 10 18 23 l6 22 15 -22 c9 -13 26 -23 37 -23 21 0 21 1 -5 28 l-27 29 24 26 25 27 -23 0 c-13 0 -31 -10 -39 -22 -16 -23 -16 -22 -16 15 -1 23 -6 37 -14 37 -9 0 -13 -20 -12 -70z"/>
  <path fill="#F36F21" d="M679 399 c-41 -41 -13 -88 51 -87 l40 0 0 53 0 53 -36 0 c-22 0 -43 -7 -55 -19z m64 -21 c7 -23 -4 -38 -29 -38 -17 0 -24 6 -24 18 0 10 3 22 7 25 11 12 41 8 46 -5z"/>
  <path fill="#F36F21" d="M790 365 c0 -42 3 -55 15 -55 11 0 15 11 15 35 0 22 6 38 15 41 26 10 16 29 -15 31 -30 2 -30 2 -30 -52z"/>
  <path fill="#F36F21" d="M1043 393 c-15 -23 -15 -28 -2 -52 12 -21 22 -26 57 -27 l42 -1 0 51 0 52 -40 1 c-33 2 -43 -3 -57 -24z m71 -19 c8 -21 -1 -34 -24 -34 -22 0 -34 15 -26 35 7 20 42 19 50 -1z"/>
  <path fill="#F36F21" d="M1160 364 c0 -40 4 -54 14 -54 10 0 16 13 18 38 2 29 7 37 23 37 16 0 21 -8 23 -37 2 -27 8 -38 19 -38 13 0 15 8 10 42 -7 49 -25 66 -73 66 l-34 0 0 -54z"/>
  <path fill="#F36F21" d="M867 403 c-4 -3 -7 -26 -7 -50 0 -32 4 -43 15 -43 11 0 15 12 15 50 0 46 -7 60 -23 43z"/>

  <!-- SUBTITLE: "A Rural Bank" (GRAY) -->
  <path fill="#6B7280" d="M522 210 c-17 -41 -18 -50 -6 -50 7 0 14 5 14 10 0 15 48 12 53 -2 2 -7 8 -10 12 -6 10 9 -27 98 -41 98 -6 0 -21 -22 -32 -50z"/>
  <path fill="#6B7280" d="M650 210 c0 -27 5 -50 10 -50 6 0 10 9 10 20 0 26 14 25 33 -2 18 -27 33 -18 18 10 -7 13 -7 22 1 30 20 20 1 42 -37 42 l-35 0 0 -50z"/>
  <path fill="#6B7280" d="M970 210 c0 -33 4 -50 13 -50 8 0 12 17 12 50 0 34 -4 50 -12 50 -9 0 -13 -17 -13 -50z"/>
  <path fill="#6B7280" d="M1050 209 l0 -50 38 3 c35 3 37 5 37 38 1 53 -4 60 -41 60 l-34 0 0 -51z"/>
  <path fill="#6B7280" d="M1320 210 c0 -27 5 -50 10 -50 6 0 10 8 10 18 1 16 1 16 14 0 22 -30 41 -22 21 8 -16 24 -16 26 2 39 10 7 15 17 11 21 -5 4 -17 -1 -28 -11 -19 -18 -20 -17 -20 3 0 12 -4 22 -10 22 -5 0 -10 -22 -10 -50z"/>
  <path fill="#6B7280" d="M746 231 c-3 -5 -3 -23 0 -40 6 -26 11 -31 35 -31 16 0 29 5 30 10 4 39 2 60 -6 60 -6 0 -11 -9 -11 -20 -2 -26 -9 -34 -24 -25 -6 4 -8 15 -5 25 6 19 -10 37 -19 21z"/>
  <path fill="#6B7280" d="M830 199 c0 -22 5 -39 10 -39 6 0 10 11 10 25 0 14 7 28 15 31 23 9 18 22 -10 22 -22 0 -25 -5 -25 -39z"/>
  <path fill="#6B7280" d="M890 220 c-16 -31 3 -59 41 -58 28 1 30 3 27 36 -3 30 -7 36 -30 39 -19 3 -30 -2 -38 -17z m46 -11 c10 -17 -13 -36 -27 -22 -12 12 -4 33 11 33 5 0 12 -5 16 -11z"/>
  <path fill="#6B7280" d="M1154 226 c-3 -8 -4 -25 -2 -38 2 -18 10 -23 36 -25 32 -1 33 0 30 35 -3 30 -7 36 -31 39 -17 2 -29 -2 -33 -11z m42 -17 c10 -17 -13 -36 -27 -22 -12 12 -4 33 11 33 5 0 12 -5 16 -11z"/>
  <path fill="#6B7280" d="M1230 199 c0 -44 17 -54 22 -12 4 39 28 42 28 4 0 -17 5 -31 11 -31 6 0 9 16 7 38 -3 34 -6 37 -35 39 -32 1 -33 0 -33 -38z"/>

  <!-- WAVES (2 BLUES) -->
  <path fill="#1D7BF2" d="M128 204 c-29 -15 -37 -34 -15 -34 6 0 21 7 31 15 27 21 71 19 141 -6 65 -23 134 -20 156 7 18 22 7 25 -41 8 -41 -14 -48 -14 -105 5 -72 24 -129 26 -167 5z"/>
  <path fill="#63B3FF" d="M153 173 c-28 -11 -12 -24 21 -17 24 4 54 -1 95 -15 65 -22 107 -26 130 -12 19 12 3 19 -51 19 -26 1 -61 8 -77 17 -29 14 -92 19 -118 8z"/>

</g>
</svg>
